#!OML:ASF F:\VICON\USERDATA\INSTALL\Justin_Nancy\Justin_Nancy.ASF
:FULLY-SPECIFIED
:DEGREES
69
root 0.299715 16.6419 4.93923 4.71128 6.0941 5.91034
lowerback 12.2891 2.64247 -4.41674
upperback 0.555001 2.83309 -0.887499
thorax -6.48255 1.50348 1.04762
lowerneck -19.9935 -6.6615 -10.4985
upperneck 11.2099 -8.17628 12.2622
head 7.68919 -3.2671 4.74491
rclavicle 1.20265e-014 3.97569e-015
rhumerus -52.582 11.3595 -98.6186
rradius 109.208
rwrist -11.7352
rhand -15.8487 32.2929
rfingers 7.12502
rthumb 10.3461 2.56737
lclavicle 1.20265e-014 3.97569e-015
lhumerus -44.6447 -12.3977 100.95
lradius 121.234
lwrist 31.5212
lhand -13.5812 7.44191
lfingers 7.12502
lthumb 12.5329 37.046
rfemur -20.4239 -14.1137 11.9204
rtibia 106.452
rfoot 10.9617 -3.19949
rtoes 15.2161
lfemur -22.7233 -4.82318 -31.8714
ltibia 46.4748
lfoot -20.4183 0.636407
ltoes -3.3344
70
root 0.28627 16.6335 5.50195 4.8118 5.257 5.87337
lowerback 12.2866 2.69253 -4.77073
upperback 0.505623 2.84946 -0.86455
thorax -6.55403 1.5238 1.26543
lowerneck -19.9984 -6.49458 -10.4123
upperneck 11.2944 -7.97076 12.2147
head 7.68704 -3.16893 4.74503
rclavicle -2.08724e-015 -2.0276e-014
rhumerus -54.0446 10.4693 -98.7028
rradius 108.539
rwrist -12.4635
rhand -15.3712 32.3346
rfingers 7.12502
rthumb 10.8067 2.63264
lclavicle -2.08724e-015 -2.0276e-014
lhumerus -42.4943 -13.167 101.278
lradius 122.048
lwrist 31.5524
lhand -13.7089 7.40627
lfingers 7.12502
lthumb 12.4097 37.0179
rfemur -24.3587 -14.3781 11.9394
rtibia 107.592
rfoot 9.13883 -2.89737
rtoes 12.6135
lfemur -20.3747 -4.50033 -31.7875
ltibia 45.9876
lfoot -21.788 1.59779
ltoes -4.58022
71
root 0.262907 16.645 6.08267 5.1092 4.52516 5.33489
lowerback 11.7679 2.66976 -4.88085
upperback 0.498821 2.85362 -0.585823
thorax -6.2907 1.53 1.64168
lowerneck -20.0385 -6.29673 -10.3452
upperneck 11.3391 -7.71286 12.1813
head 7.67316 -3.04477 4.75969
rclavicle 7.69297e-014 -2.38542e-014
rhumerus -55.3024 9.81511 -98.6624
rradius 108.206
rwrist -13.1434
rhand -15.4354 32.0812
rfingers 7.12502
rthumb 10.7448 2.37603
lclavicle 7.69297e-014 -2.38542e-014
lhumerus -40.2604 -13.8604 101.651
lradius 122.95
lwrist 31.5125
lhand -14.2006 7.59841
lfingers 7.12502
lthumb 11.9357 37.2382
rfemur -28.472 -14.6225 13.0971
rtibia 108.088
rfoot 7.47732 -2.80272
rtoes 7.99944
lfemur -18.1656 -4.1502 -31.0927
ltibia 45.2765
lfoot -22.5427 2.63321
ltoes -6.12781
72
root 0.259209 16.6408 6.65127 5.41233 3.98665 5.62403
lowerback 11.7266 2.476 -5.34364
upperback 0.298606 2.52573 -0.657446
thorax -6.47596 1.38893 1.88012
lowerneck -20.1039 -6.02644 -10.2364
upperneck 11.4132 -7.37631 12.1948
head 7.6649 -2.87581 4.79467
rclavicle -1.59028e-015 1.47101e-014
rhumerus -56.8787 9.33151 -98.8655
rradius 108.365
rwrist -13.5404
rhand -15.452 31.9048
rfingers 7.12502
rthumb 10.7288 2.19878
lclavicle -1.59028e-015 1.47101e-014
lhumerus -38.3967 -14.1801 101.741
lradius 123.923
lwrist 31.0982
lhand -14.6722 7.84689
lfingers 7.12502
lthumb 11.4809 37.5125
rfemur -32.4735 -15.0136 13.1727
rtibia 108.235
rfoot 6.07521 -2.33184
rtoes 4.66345
lfemur -15.7074 -3.99212 -31.4729
ltibia 44.3967
lfoot -22.6238 3.8106
ltoes -10.0877
73
root 0.285244 16.6446 7.20465 5.53574 4.06404 6.35358
lowerback 12.5932 1.99131 -5.559
upperback -0.202871 1.75345 -0.954289
thorax -7.44063 1.04148 1.79113
lowerneck -20.2963 -5.65548 -9.89689
upperneck 12.0053 -6.94332 11.8712
head 7.8134 -2.6704 4.69435
rclavicle 6.65929e-015 -1.35174e-014
rhumerus -58.994 8.87538 -99.2491
rradius 108.977
rwrist -13.8851
rhand -15.2066 31.9286
rfingers 7.12502
rthumb 10.9655 2.23493
lclavicle 6.65929e-015 -1.35174e-014
lhumerus -37.4038 -14.1188 101.846
lradius 125.181
lwrist 30.4759
lhand -14.6243 7.16267
lfingers 7.12502
lthumb 11.5271 36.8257
rfemur -35.6702 -15.8845 12.4483
rtibia 107.716
rfoot 4.09267 -1.2549
rtoes 1.36404
lfemur -12.8947 -4.40461 -32.4753
ltibia 43.4273
lfoot -22.2119 4.47189
ltoes -15.249
74
root 0.303743 16.6958 7.78014 5.74773 4.38358 6.29843
lowerback 12.6795 1.40291 -5.32847
upperback -0.372152 1.01013 -0.742709
thorax -7.6138 0.682957 2.02621
lowerneck -20.6362 -5.27137 -9.75929
upperneck 12.4533 -6.37672 11.3857
head 7.927 -2.42521 4.58788
rclavicle -1.33186e-014 5.96354e-015
rhumerus -60.5056 8.94017 -99.124
rradius 109.85
rwrist -14.5801
rhand -14.9434 31.9868
rfingers 7.12502
rthumb 11.2194 2.30681
lclavicle -1.33186e-014 5.96354e-015
lhumerus -35.9591 -13.8777 102.227
lradius 126.444
lwrist 30.0678
lhand -14.4028 6.23893
lfingers 7.12502
lthumb 11.7407 35.8899
rfemur -38.5632 -16.5268 13.0668
rtibia 106.279
rfoot 2.61377 -0.49386
rtoes -2.1453
lfemur -10.3415 -4.91892 -32.51
ltibia 42.3667
lfoot -21.1241 4.28313
ltoes -17.2698
